<?xml version="1.0" encoding="UTF-8"?>
<svg width="102px" height="102px" viewBox="0 0 102 102" version="1.1" xmlns="http://www.w3.org/2000/svg" xmlns:xlink="http://www.w3.org/1999/xlink">
    <!-- Generator: Sketch 54.1 (76490) - https://sketchapp.com -->
    <title>Slice 1</title>
    <desc>Created with Sketch.</desc>
    <g id="Page-1" stroke="none" stroke-width="1" fill="none" fill-rule="evenodd">
        <g id="icons8-time" fill-rule="nonzero">
            <circle id="Oval" fill="#FFFFFF" cx="51" cy="51" r="47.5"></circle>
            <path d="M56,79 L46,79 C44.3,79 43,77.7 43,76 C43,74.3 44.3,73 46,73 L56,73 C57.7,73 59,74.3 59,76 C59,77.7 57.7,79 56,79 Z" id="Path" fill="#F16677"></path>
            <path d="M51,54 C49.3,54 48,52.7 48,51 L48,21 C48,19.3 49.3,18 51,18 C52.7,18 54,19.3 54,21 L54,51 C54,52.7 52.7,54 51,54 Z" id="Path" fill="#454B54"></path>
            <path d="M51,54 L31,54 C29.3,54 28,52.7 28,51 C28,49.3 29.3,48 31,48 L51,48 C52.7,48 54,49.3 54,51 C54,52.7 52.7,54 51,54 Z" id="Path" fill="#454B54" transform="translate(41.000000, 51.000000) scale(1, -1) translate(-41.000000, -51.000000) "></path>
            <circle id="Oval" fill="#454B54" cx="51" cy="51" r="6"></circle>
            <path d="M51,101.5 C23.2,101.5 0.5,78.8 0.5,51 C0.5,23.2 23.2,0.5 51,0.5 C78.8,0.5 101.5,23.2 101.5,51 C101.5,78.8 78.8,101.5 51,101.5 Z M51,6.5 C26.5,6.5 6.5,26.5 6.5,51 C6.5,75.5 26.5,95.5 51,95.5 C75.5,95.5 95.5,75.5 95.5,51 C95.5,26.5 75.5,6.5 51,6.5 Z" id="Shape" fill="#454B54"></path>
        </g>
    </g>
</svg>